<svg width="106" height="106" viewBox="0 0 106 106" fill="none" xmlns="http://www.w3.org/2000/svg">
<path opacity="0.2" d="M104.723 53C104.723 81.9985 81.3921 105.5 52.6202 105.5C23.8483 105.5 0.5177 81.9985 0.5177 53C0.5177 24.0015 23.8483 0.5 52.6202 0.5C81.3921 0.5 104.723 24.0015 104.723 53Z" stroke="white"/>
<path opacity="0.8" d="M93.8053 53C93.8053 75.9234 75.3626 94.5 52.6203 94.5C29.878 94.5 11.4353 75.9234 11.4353 53C11.4353 30.0766 29.878 11.5 52.6203 11.5C75.3626 11.5 93.8053 30.0766 93.8053 53Z" stroke="white"/>
<ellipse cx="52.6202" cy="53.0016" rx="30.8234" ry="31.0563" fill="white"/>
<path d="M45.0717 62.1884V44.125L60.4834 52.9982L45.0717 62.1884Z" fill="#0F0E0E"/>
</svg>
